<svg width="16" height="16" viewBox="0 0 16 16" fill="none" xmlns="http://www.w3.org/2000/svg">
<mask id="path-1-inside-1" fill="white">
<path fill-rule="evenodd" clip-rule="evenodd" d="M4 12H16V16H4H0V12V0H4L4 12Z"/>
</mask>
<path fill-rule="evenodd" clip-rule="evenodd" d="M4 12H16V16H4H0V12V0H4L4 12Z" fill="black"/>
<path d="M16 12V11.5H16.5V12H16ZM4 12V12.5H3.5V12H4ZM16 16H16.5V16.5H16V16ZM0 16V16.5H-0.5V16H0ZM0 0H-0.5V-0.5H0V0ZM4 0V-0.5H4.5V0H4ZM16 12.5H4V11.5H16V12.5ZM15.5 16V12H16.5V16H15.5ZM4 15.5H16V16.5H4V15.5ZM0 15.5H4V16.5H0V15.5ZM0.5 12V16H-0.5V12H0.5ZM0.5 0V12H-0.5V0H0.5ZM4 0.5H0V-0.5H4V0.5ZM3.5 12L3.5 0H4.5L4.5 12H3.5Z" fill="white" mask="url(#path-1-inside-1)"/>
</svg>
