<?xml version="1.0" encoding="UTF-8" standalone="no"?>
<svg
   xmlns:dc="http://purl.org/dc/elements/1.1/"
   xmlns:cc="http://creativecommons.org/ns#"
   xmlns:rdf="http://www.w3.org/1999/02/22-rdf-syntax-ns#"
   xmlns:svg="http://www.w3.org/2000/svg"
   xmlns="http://www.w3.org/2000/svg"
   xmlns:sodipodi="http://sodipodi.sourceforge.net/DTD/sodipodi-0.dtd"
   xmlns:inkscape="http://www.inkscape.org/namespaces/inkscape"
   height="100px"
   width="100px"
   fill="#000000"
   version="1.1"
   x="0px"
   y="0px"
   viewBox="0 0 24 24"
   enable-background="new 0 0 24 24"
   xml:space="preserve"
   id="svg817"
   sodipodi:docname="rotate.svg"
   inkscape:version="0.92.3 (2405546, 2018-03-11)"><metadata
     id="metadata823"><rdf:RDF><cc:Work
         rdf:about=""><dc:format>image/svg+xml</dc:format><dc:type
           rdf:resource="http://purl.org/dc/dcmitype/StillImage" /><dc:title></dc:title></cc:Work></rdf:RDF></metadata><defs
     id="defs821" /><sodipodi:namedview
     pagecolor="#ffffff"
     bordercolor="#666666"
     borderopacity="1"
     objecttolerance="10"
     gridtolerance="10"
     guidetolerance="10"
     inkscape:pageopacity="0"
     inkscape:pageshadow="2"
     inkscape:window-width="1920"
     inkscape:window-height="1017"
     id="namedview819"
     showgrid="false"
     inkscape:zoom="8.34"
     inkscape:cx="68.405276"
     inkscape:cy="50"
     inkscape:window-x="0"
     inkscape:window-y="30"
     inkscape:window-maximized="1"
     inkscape:current-layer="svg817" /><path
     d="m 14.722029,16.802083 c -0.686742,0 -1.373484,0.342758 -1.54517,1.028274 -0.343371,0.685516 -0.171685,1.371032 0.343371,1.885169 l 3.77708,3.770337 c 0.171686,0.171379 0.343371,0.342758 0.515057,0.342758 C 17.984052,24 18.327423,24 18.499109,24 c 0.171685,0 0.515056,0 0.686742,-0.171379 0.171685,-0.171379 0.343371,-0.171379 0.515056,-0.342758 l 3.77708,-3.770337 c 0.515057,-0.514137 0.686742,-1.199653 0.343371,-1.885169 -0.343371,-0.685516 -0.858427,-1.028274 -1.545169,-1.028274 H 20.215963 V 14.574157 C 20.215963,8.5758926 15.40877,3.7772814 9.3997792,3.7772814 H 7.1678681 V 1.7207337 c 0,-0.6855159 -0.3433709,-1.37103176 -1.0301128,-1.54241073 C 5.4510135,-0.16443498 4.7642716,0.00694399 4.2492152,0.52108091 L 0.47213503,4.2914183 C 0.30044956,4.4627973 0.1287641,4.6341762 0.1287641,4.8055552 c -0.17168547,0.3427579 -0.17168547,0.8568949 0,1.3710318 0.17168546,0.1713789 0.17168546,0.3427579 0.34337093,0.5141369 L 4.2492152,10.461061 c 0.343371,0.342758 0.6867419,0.514137 1.2017983,0.514137 0.1716854,0 0.5150564,0 0.6867418,-0.171379 C 6.8244972,10.461061 7.1678681,9.9469243 7.1678681,9.2614085 V 7.2048608 h 2.2319111 c 4.1204508,0 7.3824748,3.2562002 7.3824748,7.3692962 v 2.227926 z"
     id="path815"
     inkscape:connector-curvature="0"
     style="stroke-width:1.71532142" /></svg>